<svg xmlns:serif="http://www.serif.com/" xmlns="http://www.w3.org/2000/svg" viewBox="0 0 600 600" fill-rule="evenodd" clip-rule="evenodd" stroke-linejoin="round" stroke-miterlimit="2"><g fill="#a6a6a6"><circle cx="209.834" cy="283.606" r="6.305"/><circle cx="209.834" cy="152.456" r="6.305"/><circle cx="209.834" cy="414.757" r="6.305"/><circle cx="209.834" cy="86.881" r="6.305"/><circle cx="209.834" cy="349.181" r="6.305"/><circle cx="209.834" cy="218.031" r="6.305"/><circle cx="144.259" cy="283.606" r="6.305"/><circle cx="144.259" cy="414.757" r="6.305"/><circle cx="144.259" cy="349.181" r="6.305"/><circle cx="144.259" cy="218.031" r="6.305"/><circle cx="275.409" cy="283.606" r="6.305"/><circle cx="275.409" cy="152.456" r="6.305"/><circle cx="275.409" cy="414.757" r="6.305"/><circle cx="275.409" cy="86.881" r="6.305"/><circle cx="275.409" cy="349.181" r="6.305"/><circle cx="275.409" cy="218.031" r="6.305"/><circle cx="275.409" cy="480.332" r="6.305"/><circle cx="373.772" cy="283.606" r="6.305"/><circle cx="373.772" cy="414.757" r="6.305"/><circle cx="373.772" cy="349.181" r="6.305"/><circle cx="373.772" cy="218.031" r="6.305"/><circle cx="373.772" cy="480.332" r="6.305"/><circle cx="455.741" cy="283.606" r="6.305"/><circle cx="455.741" cy="349.181" r="6.305"/><circle cx="455.741" cy="218.031" r="6.305"/><circle cx="209.834" cy="316.394" r="6.305"/><circle cx="209.834" cy="185.243" r="6.305"/><circle cx="209.834" cy="447.544" r="6.305"/><circle cx="209.834" cy="119.668" r="6.305"/><circle cx="209.834" cy="381.969" r="6.305"/><circle cx="209.834" cy="250.819" r="6.305"/><circle cx="144.259" cy="316.394" r="6.305"/><circle cx="144.259" cy="185.243" r="6.305"/><circle cx="144.259" cy="447.544" r="6.305"/><circle cx="144.259" cy="381.969" r="6.305"/><circle cx="144.259" cy="250.819" r="6.305"/><circle cx="275.409" cy="54.093" r="6.305"/><circle cx="275.409" cy="316.394" r="6.305"/><circle cx="275.409" cy="185.243" r="6.305"/><circle cx="275.409" cy="447.544" r="6.305"/><circle cx="275.409" cy="119.668" r="6.305"/><circle cx="275.409" cy="381.969" r="6.305"/><circle cx="275.409" cy="250.819" r="6.305"/><circle cx="373.772" cy="316.394" r="6.305"/><circle cx="373.772" cy="447.544" r="6.305"/><circle cx="373.772" cy="381.969" r="6.305"/><circle cx="373.772" cy="250.819" r="6.305"/><circle cx="373.772" cy="513.119" r="6.305"/><circle cx="455.741" cy="316.394" r="6.305"/><circle cx="455.741" cy="250.819" r="6.305"/><circle cx="111.471" cy="414.757" r="6.305"/><circle cx="111.471" cy="218.031" r="6.305"/><circle cx="242.622" cy="283.606" r="6.305"/><circle cx="242.622" cy="152.456" r="6.305"/><circle cx="242.622" cy="414.757" r="6.305"/><circle cx="242.622" cy="86.881" r="6.305"/><circle cx="242.622" cy="349.181" r="6.305"/><circle cx="242.622" cy="218.031" r="6.305"/><circle cx="340.985" cy="283.606" r="6.305"/><circle cx="340.985" cy="414.757" r="6.305"/><circle cx="340.985" cy="349.181" r="6.305"/><circle cx="340.985" cy="218.031" r="6.305"/><circle cx="340.985" cy="480.332" r="6.305"/><circle cx="177.046" cy="283.606" r="6.305"/><circle cx="177.046" cy="152.456" r="6.305"/><circle cx="177.046" cy="414.757" r="6.305"/><circle cx="177.046" cy="349.181" r="6.305"/><circle cx="177.046" cy="218.031" r="6.305"/><circle cx="308.197" cy="21.305" r="6.305"/><circle cx="308.197" cy="283.606" r="6.305"/><circle cx="308.197" cy="414.757" r="6.305"/><circle cx="308.197" cy="349.181" r="6.305"/><circle cx="308.197" cy="218.031" r="6.305"/><circle cx="308.197" cy="480.332" r="6.305"/><circle cx="406.56" cy="283.606" r="6.305"/><circle cx="406.56" cy="414.757" r="6.305"/><circle cx="406.56" cy="349.181" r="6.305"/><circle cx="406.56" cy="218.031" r="6.305"/><circle cx="406.56" cy="480.332" r="6.305"/><circle cx="488.529" cy="349.181" r="6.305"/><circle cx="111.471" cy="381.969" r="6.305"/><circle cx="242.622" cy="316.394" r="6.305"/><circle cx="242.622" cy="185.243" r="6.305"/><circle cx="242.622" cy="447.544" r="6.305"/><circle cx="242.622" cy="119.668" r="6.305"/><circle cx="242.622" cy="381.969" r="6.305"/><circle cx="242.622" cy="250.819" r="6.305"/><circle cx="340.985" cy="316.394" r="6.305"/><circle cx="340.985" cy="447.544" r="6.305"/><circle cx="340.985" cy="381.969" r="6.305"/><circle cx="340.985" cy="250.819" r="6.305"/><circle cx="340.985" cy="513.119" r="6.305"/><circle cx="177.046" cy="316.394" r="6.305"/><circle cx="177.046" cy="185.243" r="6.305"/><circle cx="177.046" cy="447.544" r="6.305"/><circle cx="177.046" cy="381.969" r="6.305"/><circle cx="177.046" cy="250.819" r="6.305"/><circle cx="308.197" cy="316.394" r="6.305"/><circle cx="308.197" cy="447.544" r="6.305"/><circle cx="308.197" cy="381.969" r="6.305"/><circle cx="308.197" cy="250.819" r="6.305"/><circle cx="308.197" cy="513.119" r="6.305"/><circle cx="406.56" cy="316.394" r="6.305"/><circle cx="406.56" cy="447.544" r="6.305"/><circle cx="406.56" cy="381.969" r="6.305"/><circle cx="406.56" cy="250.819" r="6.305"/><circle cx="406.56" cy="513.119" r="6.305"/><circle cx="406.56" cy="562.301" r="6.305"/><circle cx="209.834" cy="300" r="6.305"/><circle cx="209.834" cy="168.85" r="6.305"/><circle cx="209.834" cy="431.15" r="6.305"/><circle cx="209.834" cy="103.274" r="6.305"/><circle cx="209.834" cy="365.575" r="6.305"/><circle cx="209.834" cy="234.425" r="6.305"/><circle cx="144.259" cy="300" r="6.305"/><circle cx="144.259" cy="431.15" r="6.305"/><circle cx="144.259" cy="365.575" r="6.305"/><circle cx="144.259" cy="234.425" r="6.305"/><circle cx="275.409" cy="300" r="6.305"/><circle cx="275.409" cy="168.85" r="6.305"/><circle cx="275.409" cy="431.15" r="6.305"/><circle cx="275.409" cy="365.575" r="6.305"/><circle cx="275.409" cy="234.425" r="6.305"/><circle cx="373.772" cy="300" r="6.305"/><circle cx="373.772" cy="431.15" r="6.305"/><circle cx="373.772" cy="365.575" r="6.305"/><circle cx="373.772" cy="234.425" r="6.305"/><circle cx="373.772" cy="496.726" r="6.305"/><circle cx="455.741" cy="300" r="6.305"/><circle cx="455.741" cy="365.575" r="6.305"/><circle cx="455.741" cy="234.425" r="6.305"/><circle cx="209.834" cy="70.487" r="6.305"/><circle cx="209.834" cy="332.788" r="6.305"/><circle cx="209.834" cy="201.637" r="6.305"/><circle cx="209.834" cy="136.062" r="6.305"/><circle cx="209.834" cy="398.363" r="6.305"/><circle cx="209.834" cy="267.212" r="6.305"/><circle cx="144.259" cy="332.788" r="6.305"/><circle cx="144.259" cy="201.637" r="6.305"/><circle cx="144.259" cy="398.363" r="6.305"/><circle cx="144.259" cy="267.212" r="6.305"/><circle cx="275.409" cy="70.487" r="6.305"/><circle cx="275.409" cy="332.788" r="6.305"/><circle cx="275.409" cy="201.637" r="6.305"/><circle cx="275.409" cy="463.938" r="6.305"/><circle cx="275.409" cy="136.062" r="6.305"/><circle cx="275.409" cy="398.363" r="6.305"/><circle cx="275.409" cy="267.212" r="6.305"/><circle cx="373.772" cy="332.788" r="6.305"/><circle cx="373.772" cy="201.637" r="6.305"/><circle cx="373.772" cy="463.938" r="6.305"/><circle cx="373.772" cy="398.363" r="6.305"/><circle cx="373.772" cy="267.212" r="6.305"/><circle cx="455.741" cy="332.788" r="6.305"/><circle cx="455.741" cy="267.212" r="6.305"/><circle cx="111.471" cy="431.15" r="6.305"/><circle cx="111.471" cy="234.425" r="6.305"/><circle cx="242.622" cy="300" r="6.305"/><circle cx="242.622" cy="168.85" r="6.305"/><circle cx="242.622" cy="431.15" r="6.305"/><circle cx="242.622" cy="103.274" r="6.305"/><circle cx="242.622" cy="365.575" r="6.305"/><circle cx="242.622" cy="234.425" r="6.305"/><circle cx="340.985" cy="300" r="6.305"/><circle cx="340.985" cy="431.15" r="6.305"/><circle cx="340.985" cy="365.575" r="6.305"/><circle cx="340.985" cy="234.425" r="6.305"/><circle cx="340.985" cy="496.726" r="6.305"/><circle cx="177.046" cy="300" r="6.305"/><circle cx="177.046" cy="168.85" r="6.305"/><circle cx="177.046" cy="431.15" r="6.305"/><circle cx="177.046" cy="365.575" r="6.305"/><circle cx="177.046" cy="234.425" r="6.305"/><circle cx="308.197" cy="37.699" r="6.305"/><circle cx="308.197" cy="300" r="6.305"/><circle cx="308.197" cy="431.15" r="6.305"/><circle cx="308.197" cy="365.575" r="6.305"/><circle cx="308.197" cy="234.425" r="6.305"/><circle cx="308.197" cy="496.726" r="6.305"/><circle cx="406.56" cy="300" r="6.305"/><circle cx="406.56" cy="431.15" r="6.305"/><circle cx="406.56" cy="365.575" r="6.305"/><circle cx="406.56" cy="234.425" r="6.305"/><circle cx="406.56" cy="496.726" r="6.305"/><circle cx="488.529" cy="300" r="6.305"/><circle cx="111.471" cy="398.363" r="6.305"/><circle cx="242.622" cy="70.487" r="6.305"/><circle cx="242.622" cy="332.788" r="6.305"/><circle cx="242.622" cy="201.637" r="6.305"/><circle cx="242.622" cy="463.938" r="6.305"/><circle cx="242.622" cy="136.062" r="6.305"/><circle cx="242.622" cy="398.363" r="6.305"/><circle cx="242.622" cy="267.212" r="6.305"/><circle cx="340.985" cy="332.788" r="6.305"/><circle cx="340.985" cy="201.637" r="6.305"/><circle cx="340.985" cy="463.938" r="6.305"/><circle cx="340.985" cy="398.363" r="6.305"/><circle cx="340.985" cy="267.212" r="6.305"/><circle cx="177.046" cy="332.788" r="6.305"/><circle cx="177.046" cy="201.637" r="6.305"/><circle cx="177.046" cy="136.062" r="6.305"/><circle cx="177.046" cy="398.363" r="6.305"/><circle cx="177.046" cy="267.212" r="6.305"/><circle cx="308.197" cy="332.788" r="6.305"/><circle cx="308.197" cy="201.637" r="6.305"/><circle cx="308.197" cy="463.938" r="6.305"/><circle cx="308.197" cy="398.363" r="6.305"/><circle cx="308.197" cy="267.212" r="6.305"/><circle cx="308.197" cy="529.513" r="6.305"/><circle cx="406.56" cy="332.788" r="6.305"/><circle cx="406.56" cy="463.938" r="6.305"/><circle cx="406.56" cy="398.363" r="6.305"/><circle cx="406.56" cy="267.212" r="6.305"/><circle cx="488.529" cy="332.788" r="6.305"/><circle cx="226.228" cy="300" r="6.305"/><circle cx="226.228" cy="168.85" r="6.305"/><circle cx="226.228" cy="431.15" r="6.305"/><circle cx="226.228" cy="103.274" r="6.305"/><circle cx="226.228" cy="365.575" r="6.305"/><circle cx="226.228" cy="234.425" r="6.305"/><circle cx="160.653" cy="300" r="6.305"/><circle cx="160.653" cy="168.85" r="6.305"/><circle cx="160.653" cy="431.15" r="6.305"/><circle cx="160.653" cy="365.575" r="6.305"/><circle cx="160.653" cy="234.425" r="6.305"/><circle cx="291.803" cy="37.699" r="6.305"/><circle cx="291.803" cy="300" r="6.305"/><circle cx="291.803" cy="168.85" r="6.305"/><circle cx="291.803" cy="431.15" r="6.305"/><circle cx="291.803" cy="365.575" r="6.305"/><circle cx="291.803" cy="234.425" r="6.305"/><circle cx="291.803" cy="496.726" r="6.305"/><circle cx="390.166" cy="300" r="6.305"/><circle cx="390.166" cy="431.15" r="6.305"/><circle cx="390.166" cy="365.575" r="6.305"/><circle cx="390.166" cy="234.425" r="6.305"/><circle cx="390.166" cy="496.726" r="6.305"/><circle cx="472.135" cy="300" r="6.305"/><circle cx="472.135" cy="365.575" r="6.305"/><circle cx="472.135" cy="234.425" r="6.305"/><circle cx="226.228" cy="332.788" r="6.305"/><circle cx="226.228" cy="201.637" r="6.305"/><circle cx="226.228" cy="463.938" r="6.305"/><circle cx="226.228" cy="136.062" r="6.305"/><circle cx="226.228" cy="398.363" r="6.305"/><circle cx="226.228" cy="267.212" r="6.305"/><circle cx="160.653" cy="332.788" r="6.305"/><circle cx="160.653" cy="201.637" r="6.305"/><circle cx="160.653" cy="398.363" r="6.305"/><circle cx="160.653" cy="267.212" r="6.305"/><circle cx="291.803" cy="332.788" r="6.305"/><circle cx="291.803" cy="201.637" r="6.305"/><circle cx="291.803" cy="463.938" r="6.305"/><circle cx="291.803" cy="398.363" r="6.305"/><circle cx="291.803" cy="267.212" r="6.305"/><circle cx="390.166" cy="332.788" r="6.305"/><circle cx="390.166" cy="201.637" r="6.305"/><circle cx="390.166" cy="463.938" r="6.305"/><circle cx="390.166" cy="398.363" r="6.305"/><circle cx="390.166" cy="267.212" r="6.305"/><circle cx="472.135" cy="332.788" r="6.305"/><circle cx="127.865" cy="168.85" r="6.305"/><circle cx="127.865" cy="431.15" r="6.305"/><circle cx="127.865" cy="234.425" r="6.305"/><circle cx="259.015" cy="300" r="6.305"/><circle cx="259.015" cy="168.85" r="6.305"/><circle cx="259.015" cy="431.15" r="6.305"/><circle cx="259.015" cy="103.274" r="6.305"/><circle cx="259.015" cy="365.575" r="6.305"/><circle cx="259.015" cy="234.425" r="6.305"/><circle cx="357.378" cy="300" r="6.305"/><circle cx="357.378" cy="431.15" r="6.305"/><circle cx="357.378" cy="365.575" r="6.305"/><circle cx="357.378" cy="234.425" r="6.305"/><circle cx="357.378" cy="496.726" r="6.305"/><circle cx="439.347" cy="300" r="6.305"/><circle cx="439.347" cy="365.575" r="6.305"/><circle cx="439.347" cy="234.425" r="6.305"/><circle cx="193.44" cy="300" r="6.305"/><circle cx="193.44" cy="168.85" r="6.305"/><circle cx="193.44" cy="431.15" r="6.305"/><circle cx="193.44" cy="103.274" r="6.305"/><circle cx="193.44" cy="365.575" r="6.305"/><circle cx="193.44" cy="234.425" r="6.305"/><circle cx="324.591" cy="37.699" r="6.305"/><circle cx="324.591" cy="300" r="6.305"/><circle cx="324.591" cy="431.15" r="6.305"/><circle cx="324.591" cy="365.575" r="6.305"/><circle cx="324.591" cy="234.425" r="6.305"/><circle cx="324.591" cy="496.726" r="6.305"/><circle cx="422.954" cy="300" r="6.305"/><circle cx="422.954" cy="365.575" r="6.305"/><circle cx="422.954" cy="234.425" r="6.305"/><circle cx="422.954" cy="496.726" r="6.305"/><circle cx="422.954" cy="545.907" r="6.305"/><circle cx="504.923" cy="365.575" r="6.305"/><circle cx="127.865" cy="332.788" r="6.305"/><circle cx="127.865" cy="201.637" r="6.305"/><circle cx="127.865" cy="398.363" r="6.305"/><circle cx="127.865" cy="267.212" r="6.305"/><circle cx="259.015" cy="70.487" r="6.305"/><circle cx="259.015" cy="332.788" r="6.305"/><circle cx="259.015" cy="201.637" r="6.305"/><circle cx="259.015" cy="463.938" r="6.305"/><circle cx="259.015" cy="136.062" r="6.305"/><circle cx="259.015" cy="398.363" r="6.305"/><circle cx="259.015" cy="267.212" r="6.305"/><circle cx="357.378" cy="332.788" r="6.305"/><circle cx="357.378" cy="201.637" r="6.305"/><circle cx="357.378" cy="463.938" r="6.305"/><circle cx="357.378" cy="398.363" r="6.305"/><circle cx="357.378" cy="267.212" r="6.305"/><circle cx="439.347" cy="332.788" r="6.305"/><circle cx="439.347" cy="398.363" r="6.305"/><circle cx="439.347" cy="267.212" r="6.305"/><circle cx="193.44" cy="332.788" r="6.305"/><circle cx="193.44" cy="201.637" r="6.305"/><circle cx="193.44" cy="136.062" r="6.305"/><circle cx="193.44" cy="398.363" r="6.305"/><circle cx="193.44" cy="267.212" r="6.305"/><circle cx="324.591" cy="332.788" r="6.305"/><circle cx="324.591" cy="201.637" r="6.305"/><circle cx="324.591" cy="463.938" r="6.305"/><circle cx="324.591" cy="398.363" r="6.305"/><circle cx="324.591" cy="267.212" r="6.305"/><circle cx="324.591" cy="529.513" r="6.305"/><circle cx="422.954" cy="332.788" r="6.305"/><circle cx="422.954" cy="463.938" r="6.305"/><circle cx="422.954" cy="398.363" r="6.305"/><circle cx="422.954" cy="267.212" r="6.305"/><circle cx="422.954" cy="529.513" r="6.305"/><circle cx="422.954" cy="578.695" r="6.305"/><circle cx="95.077" cy="414.757" r="6.305"/><circle cx="226.228" cy="283.606" r="6.305"/><circle cx="226.228" cy="152.456" r="6.305"/><circle cx="226.228" cy="414.757" r="6.305"/><circle cx="226.228" cy="86.881" r="6.305"/><circle cx="226.228" cy="349.181" r="6.305"/><circle cx="226.228" cy="218.031" r="6.305"/><circle cx="160.653" cy="283.606" r="6.305"/><circle cx="160.653" cy="152.456" r="6.305"/><circle cx="160.653" cy="414.757" r="6.305"/><circle cx="160.653" cy="349.181" r="6.305"/><circle cx="160.653" cy="218.031" r="6.305"/><circle cx="291.803" cy="283.606" r="6.305"/><circle cx="291.803" cy="152.456" r="6.305"/><circle cx="291.803" cy="414.757" r="6.305"/><circle cx="291.803" cy="349.181" r="6.305"/><circle cx="291.803" cy="218.031" r="6.305"/><circle cx="291.803" cy="480.332" r="6.305"/><circle cx="390.166" cy="283.606" r="6.305"/><circle cx="390.166" cy="414.757" r="6.305"/><circle cx="390.166" cy="349.181" r="6.305"/><circle cx="390.166" cy="218.031" r="6.305"/><circle cx="390.166" cy="480.332" r="6.305"/><circle cx="472.135" cy="283.606" r="6.305"/><circle cx="472.135" cy="349.181" r="6.305"/><circle cx="472.135" cy="218.031" r="6.305"/><circle cx="226.228" cy="316.394" r="6.305"/><circle cx="226.228" cy="185.243" r="6.305"/><circle cx="226.228" cy="447.544" r="6.305"/><circle cx="226.228" cy="119.668" r="6.305"/><circle cx="226.228" cy="381.969" r="6.305"/><circle cx="226.228" cy="250.819" r="6.305"/><circle cx="160.653" cy="316.394" r="6.305"/><circle cx="160.653" cy="185.243" r="6.305"/><circle cx="160.653" cy="447.544" r="6.305"/><circle cx="160.653" cy="381.969" r="6.305"/><circle cx="160.653" cy="250.819" r="6.305"/><circle cx="291.803" cy="54.093" r="6.305"/><circle cx="291.803" cy="316.394" r="6.305"/><circle cx="291.803" cy="185.243" r="6.305"/><circle cx="291.803" cy="447.544" r="6.305"/><circle cx="291.803" cy="381.969" r="6.305"/><circle cx="291.803" cy="250.819" r="6.305"/><circle cx="291.803" cy="513.119" r="6.305"/><circle cx="390.166" cy="316.394" r="6.305"/><circle cx="390.166" cy="447.544" r="6.305"/><circle cx="390.166" cy="381.969" r="6.305"/><circle cx="390.166" cy="250.819" r="6.305"/><circle cx="390.166" cy="513.119" r="6.305"/><circle cx="472.135" cy="316.394" r="6.305"/><circle cx="127.865" cy="283.606" r="6.305"/><circle cx="127.865" cy="414.757" r="6.305"/><circle cx="127.865" cy="218.031" r="6.305"/><circle cx="259.015" cy="283.606" r="6.305"/><circle cx="259.015" cy="152.456" r="6.305"/><circle cx="259.015" cy="414.757" r="6.305"/><circle cx="259.015" cy="86.881" r="6.305"/><circle cx="259.015" cy="349.181" r="6.305"/><circle cx="259.015" cy="218.031" r="6.305"/><circle cx="259.015" cy="480.332" r="6.305"/><circle cx="357.378" cy="283.606" r="6.305"/><circle cx="357.378" cy="414.757" r="6.305"/><circle cx="357.378" cy="349.181" r="6.305"/><circle cx="357.378" cy="218.031" r="6.305"/><circle cx="357.378" cy="480.332" r="6.305"/><circle cx="439.347" cy="283.606" r="6.305"/><circle cx="439.347" cy="414.757" r="6.305"/><circle cx="439.347" cy="349.181" r="6.305"/><circle cx="439.347" cy="218.031" r="6.305"/><circle cx="193.44" cy="283.606" r="6.305"/><circle cx="193.44" cy="152.456" r="6.305"/><circle cx="193.44" cy="414.757" r="6.305"/><circle cx="193.44" cy="86.881" r="6.305"/><circle cx="193.44" cy="349.181" r="6.305"/><circle cx="193.44" cy="218.031" r="6.305"/><circle cx="324.591" cy="21.305" r="6.305"/><circle cx="324.591" cy="283.606" r="6.305"/><circle cx="324.591" cy="414.757" r="6.305"/><circle cx="324.591" cy="349.181" r="6.305"/><circle cx="324.591" cy="218.031" r="6.305"/><circle cx="324.591" cy="480.332" r="6.305"/><circle cx="422.954" cy="283.606" r="6.305"/><circle cx="422.954" cy="414.757" r="6.305"/><circle cx="422.954" cy="349.181" r="6.305"/><circle cx="422.954" cy="218.031" r="6.305"/><circle cx="422.954" cy="480.332" r="6.305"/><circle cx="127.865" cy="185.243" r="6.305"/><circle cx="127.865" cy="381.969" r="6.305"/><circle cx="127.865" cy="250.819" r="6.305"/><circle cx="259.015" cy="316.394" r="6.305"/><circle cx="259.015" cy="185.243" r="6.305"/><circle cx="259.015" cy="447.544" r="6.305"/><circle cx="259.015" cy="119.668" r="6.305"/><circle cx="259.015" cy="381.969" r="6.305"/><circle cx="259.015" cy="250.819" r="6.305"/><circle cx="357.378" cy="316.394" r="6.305"/><circle cx="357.378" cy="447.544" r="6.305"/><circle cx="357.378" cy="381.969" r="6.305"/><circle cx="357.378" cy="250.819" r="6.305"/><circle cx="357.378" cy="513.119" r="6.305"/><circle cx="439.347" cy="316.394" r="6.305"/><circle cx="439.347" cy="250.819" r="6.305"/><circle cx="193.44" cy="316.394" r="6.305"/><circle cx="193.44" cy="185.243" r="6.305"/><circle cx="193.44" cy="119.668" r="6.305"/><circle cx="193.44" cy="381.969" r="6.305"/><circle cx="193.44" cy="250.819" r="6.305"/><circle cx="324.591" cy="316.394" r="6.305"/><circle cx="324.591" cy="447.544" r="6.305"/><circle cx="324.591" cy="381.969" r="6.305"/><circle cx="324.591" cy="250.819" r="6.305"/><circle cx="324.591" cy="513.119" r="6.305"/><circle cx="422.954" cy="316.394" r="6.305"/><circle cx="422.954" cy="447.544" r="6.305"/><circle cx="422.954" cy="250.819" r="6.305"/><circle cx="422.954" cy="513.119" r="6.305"/><circle cx="422.954" cy="562.301" r="6.305"/><circle cx="504.923" cy="381.969" r="6.305"/></g><g serif:id="Ciudad 1" stroke="#fc4a1a"><circle cx="259.015" cy="300" r="6.305" fill="#fc4a1a"/><circle cx="259.015" cy="300" r="11.333" fill="none" stroke-width="1.8"/></g><g serif:id="Ciudad 2" stroke="#fc4a1a"><circle serif:id="relleno" cx="373.772" cy="218.667" r="6.305" fill="#fc4a1a"/><circle serif:id="trazo" cx="373.772" cy="218.667" r="11.333" fill="none" stroke-width="1.8"/></g><g serif:id="Ciudad 3" stroke="#fc4a1a"><circle serif:id="relleno" cx="357" cy="431.333" r="6.305" fill="#fc4a1a"/><circle serif:id="trazo" cx="357" cy="431.333" r="11.333" fill="none" stroke-width="1.8"/></g><g serif:id="Ciudad 4" stroke="#fc4a1a"><circle serif:id="relleno" cx="193" cy="217.667" r="6.305" fill="#fc4a1a"/><circle serif:id="trazo" cx="193" cy="217.667" r="11.333" fill="none" stroke-width="1.8"/></g><g serif:id="Ciudad 5" stroke="#fc4a1a"><circle serif:id="relleno" cx="193.667" cy="348.667" r="6.305" fill="#fc4a1a"/><circle serif:id="trazo" cx="193.667" cy="348.667" r="11.333" fill="none" stroke-width="1.8"/></g><g serif:id="Ciudad 6" stroke="#fc4a1a"><circle serif:id="relleno" cx="210" cy="70.667" r="6.305" fill="#fc4a1a"/><circle serif:id="trazo" cx="210" cy="70.667" r="11.333" fill="none" stroke-width="1.8"/></g></svg>