<?xml version="1.0" encoding="UTF-8" standalone="no"?><!DOCTYPE svg PUBLIC "-//W3C//DTD SVG 1.1//EN" "http://www.w3.org/Graphics/SVG/1.1/DTD/svg11.dtd"><svg width="100%" height="100%" viewBox="0 0 32 32" version="1.1" xmlns="http://www.w3.org/2000/svg" xmlns:xlink="http://www.w3.org/1999/xlink" xml:space="preserve" xmlns:serif="http://www.serif.com/" style="fill-rule:evenodd;clip-rule:evenodd;stroke-linejoin:round;stroke-miterlimit:2;"><g><g><path d="M6.585,13.532l13.801,0l-3.667,13.6l7.667,0c0,0 1.222,-4.533 3.666,-13.6l2.528,0c0.144,0.797 0.21,1.625 0.21,2.468c0,8.672 -6.918,15.712 -15.439,15.712c-4.244,0 -8.09,-1.746 -10.889,-4.58l8.39,0l2.866,-10.533l-8.4,0l-0.866,2.467c-0.394,0.811 -0.209,1.19 0.6,1.132l1.199,0l-1.066,3.268c0,0 -1.245,0.022 -3.734,0.066c-1.344,-0.262 -1.7,-1.306 -1.067,-3.133c0,0 0.556,-1.711 1.667,-5.134c0.384,-1.267 1.215,-1.846 2.534,-1.733Z" style="fill:#fa692a;"/><path d="M1.21,9.709c2.377,-5.544 7.817,-9.421 14.141,-9.421c6.302,0 11.728,3.851 14.12,9.377l-27.201,0l-0.909,0.011l-0.151,0.033Z" style="fill:#fa692a;"/></g></g></svg>