<?xml version="1.0" encoding="UTF-8" standalone="no"?><!DOCTYPE svg PUBLIC "-//W3C//DTD SVG 1.1//EN" "http://www.w3.org/Graphics/SVG/1.1/DTD/svg11.dtd"><svg width="100%" height="100%" viewBox="0 0 300 100" version="1.1" xmlns="http://www.w3.org/2000/svg" xmlns:xlink="http://www.w3.org/1999/xlink" xml:space="preserve" xmlns:serif="http://www.serif.com/" style="fill-rule:evenodd;clip-rule:evenodd;stroke-linejoin:round;stroke-miterlimit:2;"><path d="M285.912,46.036c-42.167,-0.978 -79.298,2.95 -111.395,11.784c31.428,-19.505 72.513,-28.282 123.256,-26.33c-7.907,9.698 -11.861,14.546 -11.861,14.546" style="fill:#fa692a;"/><g><path d="M23.271,51.584l32.024,0l-8.509,31.56l17.791,0c0,0 2.836,-10.52 8.508,-31.56l5.867,0c0.334,1.851 0.486,3.771 0.486,5.728c0,20.122 -16.053,36.459 -35.826,36.459c-9.847,0 -18.772,-4.052 -25.266,-10.627l19.467,0l6.652,-24.443l-19.493,0l-2.01,5.724c-0.913,1.883 -0.484,2.763 1.392,2.629l2.784,0l-2.475,7.581c0,0 -2.888,0.052 -8.663,0.155c-3.12,-0.608 -3.945,-3.031 -2.476,-7.271c0,0 1.289,-3.971 3.868,-11.913c0.89,-2.94 2.818,-4.284 5.879,-4.022Z" style="fill:#fa692a;"/><path d="M10.799,42.713c5.515,-12.864 18.14,-21.861 32.813,-21.861c14.625,0 27.214,8.937 32.765,21.759l-63.118,0l-2.111,0.025l-0.349,0.077Z" style="fill:#fa692a;"/></g><g><path d="M95.813,47.287l16.313,0l0,6.26l-13.593,0c-2.297,0 -4.176,1.879 -4.176,4.175l0,15.402c0,2.296 1.879,4.175 4.176,4.175l22.766,0c2.296,0 4.175,-1.879 4.175,-4.175l0,-4.294l-8.285,0l0,-6.905l16.202,0l0,11.616c0,5.358 -4.384,9.742 -9.742,9.742l-27.836,0c-5.358,0 -9.742,-4.384 -9.742,-9.742l0,-16.513c0,-5.358 4.384,-9.741 9.742,-9.741" style="fill:#1c5dad;"/><path d="M136.248,83.375l0,-18.451c0,-5.651 4.623,-10.272 10.272,-10.272l10.719,0l0,6.26l-8.202,0c-2.679,0 -4.871,2.192 -4.871,4.871l0,17.592l-7.918,0Z" style="fill:#1c5dad;"/><path d="M171.314,53.679l22.208,0c5.741,0 10.439,4.698 10.439,10.439l0,8.767c0,5.741 -4.698,10.438 -10.439,10.438l-22.208,0c-5.74,0 -10.439,-4.697 -10.439,-10.438l0,-8.767c0,-5.741 4.699,-10.439 10.439,-10.439Zm1.604,7.135l18.266,0c1.914,0 3.479,1.566 3.479,3.48l0,8.415c0,1.914 -1.565,3.48 -3.479,3.48l-18.266,0c-1.914,0 -3.479,-1.566 -3.479,-3.48l0,-8.415c0,-1.914 1.565,-3.48 3.479,-3.48" style="fill:#1c5dad;"/><path d="M264.108,53.684l22.208,0c5.741,0 10.439,4.697 10.439,10.439l0,8.766c0,5.742 -4.698,10.439 -10.439,10.439l-22.208,0c-0.783,0 -1.547,-0.088 -2.282,-0.253l0,7.43l-8.157,0l0,-17.616l0,-1.234l0,-7.532c0,-5.742 4.698,-10.439 10.439,-10.439Zm1.604,7.135l18.266,0c1.914,0 3.479,1.566 3.479,3.48l0,8.415c0,1.914 -1.565,3.48 -3.479,3.48l-18.266,0c-1.914,0 -3.48,-1.566 -3.48,-3.48l0,-8.415c0,-1.914 1.566,-3.48 3.48,-3.48" style="fill:#1c5dad;"/><path d="M249.972,53.934l0,18.746c0,5.741 -4.697,10.438 -10.438,10.438l-21.657,0c-5.741,0 -10.438,-4.697 -10.438,-10.438l0,-18.746l7.918,0l0,19.168c0,1.914 1.566,3.479 3.479,3.479l19.371,0c1.914,0 3.48,-1.565 3.48,-3.479l0,-19.168l8.285,0Z" style="fill:#1c5dad;"/></g><path d="M273.116,10.694c4.235,0 8.077,1.721 10.86,4.504l0.004,-0.003c2.78,2.78 4.5,6.622 4.5,10.864c0,4.236 -1.721,8.078 -4.504,10.862l0.004,0.003c-2.78,2.78 -6.622,4.5 -10.864,4.5c-4.243,0 -8.085,-1.72 -10.866,-4.5l-0.1,-0.108c-2.721,-2.775 -4.4,-6.574 -4.4,-10.757c0,-4.242 1.72,-8.084 4.5,-10.864l0.109,-0.101c2.775,-2.721 6.574,-4.4 10.757,-4.4Zm8.403,6.954c-2.145,-2.146 -5.117,-3.474 -8.403,-3.474c-3.243,0 -6.179,1.293 -8.318,3.388l-0.087,0.093c-2.15,2.151 -3.482,5.122 -3.482,8.404c0,3.242 1.293,6.179 3.389,8.317l0.093,0.087c2.151,2.151 5.123,3.482 8.405,3.482c3.281,0 6.253,-1.331 8.403,-3.482l0.004,0.004l0.003,-0.004c2.146,-2.145 3.475,-5.117 3.475,-8.404c0,-3.282 -1.332,-6.253 -3.482,-8.404l0.004,-0.003l-0.004,-0.004Z" style="fill:#fff;fill-rule:nonzero;"/><path d="M273.115,12.434c7.525,0 13.625,6.101 13.625,13.625c0,7.525 -6.1,13.626 -13.625,13.626c-7.524,0 -13.625,-6.101 -13.625,-13.626c0,-7.524 6.101,-13.625 13.625,-13.625" style="fill:#1c5dad;"/><path d="M243.384,21.061c3.084,0 5.878,1.251 7.899,3.272c2.021,2.021 3.272,4.815 3.272,7.899c0,3.079 -1.252,5.872 -3.273,7.894l-0.002,0.003l-0.002,0.002l-0.002,0.003c-2.023,2.019 -4.815,3.269 -7.892,3.269c-3.084,0 -5.878,-1.251 -7.899,-3.272c-2.021,-2.02 -3.272,-4.814 -3.272,-7.899c0,-3.079 1.251,-5.872 3.272,-7.895l0.002,-0.002l0.002,-0.002l0.003,-0.003c2.023,-2.019 4.814,-3.269 7.892,-3.269Zm6.422,4.749c-1.643,-1.644 -3.915,-2.661 -6.422,-2.661c-2.511,0 -4.782,1.016 -6.423,2.657l-0.004,0.004c-1.641,1.64 -2.657,3.911 -2.657,6.422c0,2.508 1.018,4.779 2.661,6.423c1.644,1.643 3.916,2.66 6.423,2.66c2.51,0 4.782,-1.016 6.422,-2.657l0.004,-0.004c1.641,-1.64 2.657,-3.912 2.657,-6.422c0,-2.507 -1.018,-4.779 -2.661,-6.422" style="fill:#fff;fill-rule:nonzero;"/><path d="M243.383,22.105c5.593,0 10.128,4.534 10.128,10.127c0,5.593 -4.535,10.127 -10.128,10.127c-5.592,0 -10.127,-4.534 -10.127,-10.127c0,-5.593 4.535,-10.127 10.127,-10.127" style="fill:#1c5dad;"/><path d="M219.355,31.172c2.27,0 4.329,0.922 5.819,2.412l0.004,0c1.489,1.489 2.412,3.549 2.412,5.823c0,2.271 -0.923,4.33 -2.412,5.82l-0.004,0.003c-1.49,1.49 -3.549,2.412 -5.819,2.412c-2.275,0 -4.334,-0.922 -5.824,-2.412c-1.489,-1.489 -2.412,-3.549 -2.412,-5.823c0,-2.274 0.923,-4.334 2.412,-5.823c1.49,-1.49 3.549,-2.412 5.824,-2.412Zm4.594,3.641c-1.175,-1.174 -2.8,-1.902 -4.594,-1.902c-1.794,0 -3.419,0.729 -4.593,1.903c-1.175,1.175 -1.903,2.8 -1.903,4.593c0,1.793 0.728,3.418 1.903,4.593c1.174,1.175 2.799,1.902 4.593,1.902c1.794,0 3.419,-0.727 4.594,-1.901c1.174,-1.175 1.901,-2.799 1.901,-4.594c0,-1.793 -0.728,-3.418 -1.903,-4.593l0.002,-0.001Z" style="fill:#fff;fill-rule:nonzero;"/><path d="M219.354,32.042c4.068,0 7.366,3.297 7.366,7.365c0,4.068 -3.298,7.366 -7.366,7.366c-4.067,0 -7.365,-3.298 -7.365,-7.366c0,-4.068 3.298,-7.365 7.365,-7.365" style="fill:#1c5dad;"/></svg>