<svg xmlns="http://www.w3.org/2000/svg" width="800" height="600" viewBox="0 0 211.667 158.75"><g transform="translate(0 -138.25)"><path d="M15.323 218.045a43.25 43.25 0 0 1-8.349-20.469 43.25 43.25 0 0 1 2.92-21.912 43.25 43.25 0 0 1 13.417-17.569 43.25 43.25 0 0 1 20.371-8.585c5.369-.75 11.005-.444 15.952 1.773 3.775 1.692 6.978 4.404 10.29 6.883 3.31 2.48 6.906 4.808 10.98 5.524 2.142.376 4.343.29 6.498 0 7.815-1.051 15.002-4.7 22.493-7.16 3.745-1.23 7.618-2.172 11.557-2.32 3.94-.146 7.966.533 11.443 2.39 1.744.931 3.33 2.147 4.727 3.545 4.197 4.203 6.599 10.032 7.09 15.952.413 4.987-.457 9.98-.768 14.974-.31 4.994.006 10.252 2.54 14.567 2.213 3.768 5.915 6.446 9.816 8.417 3.9 1.971 8.077 3.34 12.044 5.172 8.485 3.918 15.876 9.901 22.451 16.543 5.074 5.124 9.802 10.815 12.36 17.557 1.279 3.371 1.99 6.979 1.868 10.582-.123 3.603-1.1 7.201-3.002 10.264-2.174 3.499-5.48 6.193-9.11 8.141-3.63 1.95-7.59 3.197-11.569 4.266-5.334 1.432-10.78 2.566-16.3 2.769-5.52.203-11.136-.552-16.195-2.77-5.112-2.24-9.467-5.87-14.18-8.861-9.674-6.142-20.804-9.559-31.903-12.408-12.165-3.122-24.756-5.662-37.222-4.135-4.554.558-9.029 1.653-13.583 2.21-4.554.558-9.288.554-13.594-1.029-4.008-1.473-7.47-4.28-9.972-7.739-2.502-3.46-4.068-7.55-4.799-11.758-.782-4.504-.635-9.16-1.772-13.588a24.163 24.163 0 0 0-6.5-11.226z" fill="#d0dcff" fill-opacity=".992" fill-rule="evenodd"/><g transform="matrix(.03387 0 0 -.03387 19.872 297.826)" stroke-width="1.042"><path d="M1727.95 2654.53l-88.61-81.39 1629.27-.57-71.62 81.96H1727.95" fill="#216cc9" fill-opacity=".992"/><path d="M1726.57 2697.91s-304.89 10.69-356.29-22.03c-49.3-31.39-340.3-251.13-333.11-284.37 19.97-92.36 2971.23-66.09 2990.64-3.98 13.78 44.08-315.08 291.53-359.97 299.36-68.41 11.94-481.18 11.02-481.18 11.02l78.97-108.35s-1592.32-18.37-1618.03-9.18c-33.34 11.9 78.97 117.53 78.97 117.53" fill="#649ee6" fill-opacity=".992"/><path d="M1037.04 2196.53c-4.42 35.65.13 194.98.13 194.98l2990.64-3.98s21.58-179.82 0-191c-50.51-26.17-2980.77-80.81-2990.77 0" fill="#216cc9" fill-opacity=".992"/><path d="M3277.57 1309.46s799.97-18.44 812.68 9.18c26.63 57.85 41.01 809.47 16.54 835.42-13.79 14.63-829.22 0-829.22 0v-844.6M956.746 1309.46s619.334-18.44 629.184 9.18c20.62 57.85 31.74 809.47 12.79 835.42-10.67 14.63-641.974 0-641.974 0v-844.6" fill="#649ee6" fill-opacity=".992"/><path d="M3531.02 1503.68h-79.9c-18.18 0-33.05 14.87-33.05 33.06v263.08c0 18.19 14.87 33.06 33.05 33.06h79.9c18.18 0 33.05-14.87 33.05-33.06v-263.08c0-18.19-14.87-33.06-33.05-33.06" fill="#ececec"/><path d="M1347.66 1480.25h-203.9c-28.7 0-52.18 23.49-52.18 52.19v284.26c0 28.7 23.48 52.19 52.18 52.19h203.9c28.71 0 52.19-23.49 52.19-52.19v-284.26c0-28.7-23.48-52.19-52.19-52.19" fill="#1d5ead"/><path d="M3738.41 1503.68h-79.89c-18.19 0-33.06 14.87-33.06 33.06v263.08c0 18.19 14.87 33.06 33.06 33.06h79.89c18.18 0 33.05-14.87 33.05-33.06v-263.08c0-18.19-14.87-33.06-33.05-33.06" fill="#1d3959"/><path d="M3942.27 1503.68h-79.9c-18.18 0-33.05 14.87-33.05 33.06v263.08c0 18.19 14.87 33.06 33.05 33.06h79.9c18.18 0 33.05-14.87 33.05-33.06v-263.08c0-18.19-14.87-33.06-33.05-33.06" fill="#fa692a"/><path d="M1586.07 1868.89h1713.54V2180H1586.07v-311.11" fill="#1c5dad" fill-opacity=".992"/><path d="M1820.24 3204.81c9.18 45.94 1265.36 47.05 1291.12 0 20.94-38.25 42.24-602.4 42.24-602.4H1752.28s57.65 550.83 67.96 602.4" fill="#649ee6" fill-opacity=".992"/><path d="M1976.35 3432.55h1008.28s11.02-611.58 38.57-819H1943.29c23.88 218.44 33.06 819 33.06 819" fill="#fff"/><path d="M3186.66 2697.91l10.33-43.38 56.9-65.11 11.74.14-78.97 108.35M1727.95 2654.53l-1.38 43.38-126.03-125.34 47.06 7.81 80.35 74.15" fill="#1c5dad" fill-opacity=".992"/><path d="M4106.79 2154.06l-78.98 42.47-728.2-28.18v-14.29h807.18" fill="#4c2990" fill-opacity=".992"/><path d="M956.746 2154.06l80.294 42.47 498.07-37.03z" fill="#1c5dad" fill-opacity=".992"/><path d="M1585.93 1318.64l1713.68-9.3v559.55H1586.07l-.14-550.25" fill="#216cc9" fill-opacity=".992"/><g fill="#fa692a" transform="matrix(6.82462 0 0 -6.82462 1136.521 1783.764)" clip-rule="evenodd" fill-rule="evenodd" stroke-linejoin="round" stroke-miterlimit="2"><path d="M6.585 13.532h13.801l-3.667 13.6h7.667l3.666-13.6h2.528c.144.797.21 1.625.21 2.468 0 8.672-6.918 15.712-15.439 15.712-4.244 0-8.09-1.746-10.889-4.58h8.39l2.866-10.533h-8.4l-.866 2.467c-.394.811-.209 1.19.6 1.132h1.199l-1.066 3.268-3.734.066c-1.344-.262-1.7-1.306-1.067-3.133l1.667-5.134c.384-1.267 1.215-1.846 2.534-1.733zM1.21 9.709C3.587 4.165 9.027.288 15.351.288c6.302 0 11.728 3.851 14.12 9.377H2.27l-.909.011z"/></g><rect style="isolation:auto;mix-blend-mode:normal" width="803.14" height="34.47" x="2086.638" y="-3377.953" transform="scale(1 -1)" ry="7.312" color="#000" overflow="visible" opacity=".99" fill="#e6e6e6"/><rect ry="7.312" transform="scale(1 -1)" y="-3309.014" x="2086.638" height="34.47" width="541.172" style="isolation:auto;mix-blend-mode:normal" color="#000" overflow="visible" opacity=".99" fill="#e6e6e6"/><rect style="isolation:auto;mix-blend-mode:normal" width="737.648" height="34.47" x="2086.638" y="-3240.075" transform="scale(1 -1)" ry="7.312" color="#000" overflow="visible" opacity=".99" fill="#e6e6e6"/><rect ry="7.312" transform="scale(1 -1)" y="-3112.538" x="2083.191" height="34.47" width="803.14" style="isolation:auto;mix-blend-mode:normal" color="#000" overflow="visible" opacity=".99" fill="#e6e6e6"/><rect style="isolation:auto;mix-blend-mode:normal" width="541.172" height="34.47" x="2083.191" y="-3043.599" transform="scale(1 -1)" ry="7.312" color="#000" overflow="visible" opacity=".99" fill="#e6e6e6"/><rect ry="7.312" transform="scale(1 -1)" y="-2974.66" x="2083.191" height="34.47" width="737.648" style="isolation:auto;mix-blend-mode:normal" color="#000" overflow="visible" opacity=".99" fill="#e6e6e6"/><rect style="isolation:auto;mix-blend-mode:normal" width="737.648" height="34.47" x="2083.191" y="-2836.782" transform="scale(1 -1)" ry="7.312" color="#000" overflow="visible" opacity=".99" fill="#e6e6e6"/></g><g transform="matrix(1.24712 0 0 1.24712 -24.762 -63.667)" stroke-width=".802"><circle style="isolation:auto;mix-blend-mode:normal" cx="36.21" cy="185.229" r="11.092" color="#000" overflow="visible" opacity=".99" fill="#ececec" fill-opacity=".992"/><circle r="11.092" cy="185.549" cx="35.68" style="isolation:auto;mix-blend-mode:normal" color="#000" overflow="visible" opacity=".99" fill="#1c5dad" fill-opacity=".992"/><g transform="matrix(.0238 0 0 .0238 29.969 179.837)" fill="#fff" stroke="#fff" stroke-width="11.886"><path d="M456 176h-52a167.47 167.47 0 0 0-2.785-6.68l36.8-36.8c9.38-9.375 9.38-24.579 0-33.954l-56.558-56.558c-9.375-9.38-24.578-9.38-33.953 0l-36.8 36.8a167.474 167.474 0 0 0-6.68-2.785V24c0-13.254-10.747-24-24-24H200c-13.254 0-24 10.746-24 24v52c-2.176.848-4.39 1.777-6.68 2.785l-36.8-36.8c-9.375-9.38-24.579-9.38-33.954 0L42 98.542c-9.36 9.383-9.36 24.57 0 33.953l36.8 36.8a167.482 167.482 0 0 0-2.784 6.68H24c-13.254 0-24 10.747-24 24V280c0 13.254 10.746 24 24 24h52c.848 2.176 1.777 4.39 2.785 6.68l-36.8 36.8c-9.38 9.375-9.38 24.579 0 33.954l56.558 56.558c9.383 9.36 24.57 9.36 33.953 0l36.8-36.8a167.476 167.476 0 0 0 6.68 2.785V456c0 13.254 10.747 24 24 24H280c13.254 0 24-10.746 24-24v-52c2.176-.848 4.39-1.777 6.68-2.785l36.8 36.8c9.383 9.36 24.57 9.36 33.954 0L438 381.458c9.36-9.383 9.36-24.57 0-33.953l-36.8-36.8a167.47 167.47 0 0 0 2.784-6.68H456c13.254 0 24-10.747 24-24V200c0-13.254-10.746-24-24-24zm8 104a8 8 0 0 1-8 8h-57.602a8 8 0 0 0-7.566 5.406 146.226 146.226 0 0 1-6.45 15.547 8 8 0 0 0 1.602 9.102l40.72 40.722a8.003 8.003 0 0 1 2.35 5.664 8.01 8.01 0 0 1-2.35 5.664l-56.56 56.56a8.215 8.215 0 0 1-11.328 0l-40.718-40.72a8.006 8.006 0 0 0-9.106-1.601 146.982 146.982 0 0 1-15.543 6.449 7.997 7.997 0 0 0-5.449 7.605V456a8 8 0 0 1-8 8h-80a8 8 0 0 1-8-8v-57.602a8 8 0 0 0-5.406-7.566 146.227 146.227 0 0 1-15.547-6.45 8 8 0 0 0-9.102 1.602l-40.722 40.72a8.215 8.215 0 0 1-11.328 0l-56.56-56.56a8.003 8.003 0 0 1-2.35-5.664c0-2.125.847-4.164 2.35-5.664l40.72-40.718a8.006 8.006 0 0 0 1.601-9.106 146.982 146.982 0 0 1-6.449-15.543A7.997 7.997 0 0 0 81.602 288H24a8 8 0 0 1-8-8v-80a8 8 0 0 1 8-8h57.602a8 8 0 0 0 7.566-5.406 146.226 146.226 0 0 1 6.45-15.547 8 8 0 0 0-1.602-9.102l-40.72-40.722a8.003 8.003 0 0 1-2.35-5.664 8.01 8.01 0 0 1 2.35-5.664l56.56-56.56a8.2 8.2 0 0 1 11.328 0l40.718 40.72a8.006 8.006 0 0 0 9.106 1.601 146.982 146.982 0 0 1 15.543-6.449A7.997 7.997 0 0 0 192 81.602V24a8 8 0 0 1 8-8h80a8 8 0 0 1 8 8v57.602a8 8 0 0 0 5.406 7.566 146.225 146.225 0 0 1 15.547 6.45 8 8 0 0 0 9.102-1.602l40.722-40.72a8.215 8.215 0 0 1 11.328 0l56.56 56.56a8.003 8.003 0 0 1 2.35 5.664 8.003 8.003 0 0 1-2.35 5.664l-40.72 40.718a8.006 8.006 0 0 0-1.601 9.106 146.982 146.982 0 0 1 6.449 15.543 7.997 7.997 0 0 0 7.605 5.449H456a8 8 0 0 1 8 8zm0 0"/><path d="M240 136c-57.438 0-104 46.563-104 104 0 57.438 46.563 104 104 104 57.438 0 104-46.563 104-104-.066-57.41-46.59-103.934-104-104zm0 192c-48.602 0-88-39.398-88-88s39.398-88 88-88 88 39.398 88 88c-.059 48.578-39.422 87.941-88 88zm0 0"/></g></g><g transform="matrix(1.83209 0 0 1.83209 112.55 -153.04)" stroke-width=".546"><circle style="isolation:auto;mix-blend-mode:normal" cx="36.21" cy="185.211" r="11.092" color="#000" overflow="visible" opacity=".99" fill="#ccc" fill-opacity=".992"/><circle r="11.092" cy="185.549" cx="35.68" style="isolation:auto;mix-blend-mode:normal" color="#000" overflow="visible" opacity=".99" fill="#1c5dad" fill-opacity=".992"/><g transform="matrix(.0333 0 0 .0333 28.622 178.49)" fill="#fff" stroke-width="4.338"><path d="M352.4 34.019c-32.4 0-58 26-58 58.4s26 58 58 58 58.4-26 58.4-58.4-26-58-58.4-58zm0 103.6c-25.2 0-45.6-20.4-45.6-45.6 0-25.2 20.8-45.2 45.6-45.2 25.2 0 45.6 20.4 45.6 45.6 0 25.2-20.4 45.2-45.6 45.2z"/><path d="M370.8 101.219c-.4-1.2-.4-2-1.2-3.2-.4-.8-.8-2-1.6-2.8-.8-.8-1.2-1.6-2-2.4-.8-.8-1.6-1.6-2.8-2-.8-.8-2-1.2-2.8-1.6-1.2-.4-2-1.2-3.2-1.6-1.2-.4-2.4-.8-3.2-1.2-.4 0-1.2-.4-1.6-.8-.4-.4-1.2-.4-1.6-.8-.4-.4-1.2-.4-1.6-.8l-1.2-1.2c-.4-.4-.8-.8-.8-1.6-.4-.4-.4-1.2-.4-1.6v-2c0-.4.4-1.2.4-1.6.4-.4.4-1.2.8-1.6l1.2-1.2c.4-.4 1.2-.8 2-.8.8-.4 1.2-.4 2-.4h2.4c.8 0 1.2 0 2 .4.8 0 1.6.4 2 .4.4 0 1.2.4 1.6.4.8 0 1.2.4 1.6.4l2 .8.4-2.4.8-6.4v-1.6l-1.6-.4c-.4 0-1.2-.4-1.6-.4-.4 0-.8-.4-1.6-.4-.4 0-1.2-.4-2-.4s-1.2-.4-2-.4h-.4v-7.6h-9.6v8h-.4c-1.2.4-2.4.8-3.6 1.6-1.2.4-2 1.2-2.8 2-.8.8-1.6 1.6-2.4 2.8-.8.8-1.2 2-1.6 3.2l-1.2 3.6c-.4 1.2-.4 2.8-.4 4 0 1.2 0 2 .4 3.2.4 1.2.4 2 1.2 3.2.4.8 1.2 2 1.6 2.8.8.8 1.2 1.6 2 2.4.8.8 1.6 1.6 2.8 2 .8.8 2 1.2 2.8 1.6 1.2.4 2.4 1.2 3.2 1.6 1.2.4 2.4.8 3.2 1.2.4 0 1.2.4 1.6.8.4.4 1.2.4 1.6.8.4.4.8.8 1.2.8l1.2 1.2c.4.4.4.8.8 1.6 0 .4.4 1.2.4 2v2c0 .4-.4 1.2-.8 1.6l-1.2 1.2c-.4.4-.8.8-1.6 1.2-.4.4-1.2.4-1.6.8-.4 0-1.2.4-2 .4h-5.2c-.8 0-1.6-.4-2-.4-.8 0-1.6-.4-2.4-.8-.8-.4-1.6-.4-2.4-.8-.4 0-.8-.4-1.2-.4-.4 0-.8-.4-1.2-.4l-2.4-1.2-.4 2.8-.8 7.2v1.2l1.2.4c1.6-.4 2.4 0 3.6.4.8.4 2 .8 2.8.8.8.4 2 .4 3.2.8 1.2.4 2 .4 3.2.4h.8v8h9.6v-8.4h.4c1.2-.4 2.4-.8 3.6-1.6 1.2-.4 2-1.2 3.2-2 .8-.8 1.6-1.6 2.4-2.8.8-.8 1.2-2 2-3.2l1.2-3.6c.4-1.2.4-2.4.4-4 0-1.2 0-2-.4-3.2zM324.4 158.019c-2-2.8-6.4-3.2-9.2-1.2l-64.8 51.6-83.6-34.8c-2-.8-4.4-.4-6 .8l-89.6 64c-2.8 2-3.6 6-1.6 8.8 1.2 2 3.2 2.8 5.2 2.8 1.2 0 2.4-.4 3.6-1.2l86.8-62 84 34.8c2 .8 4.8.4 6.4-.8l67.6-53.6c2.8-2 3.2-6.4 1.2-9.2z"/><path d="M418 377.219h-29.6v-185.2c0-3.6-2.8-6.4-6.4-6.4h-58.8c-3.6 0-6.4 2.8-6.4 6.4v185.2h-21.6v-121.2c0-3.6-2.8-6.4-6.4-6.4h-59.2c-3.6 0-6.4 2.8-6.4 6.4v121.2h-21.6v-130.8c0-3.6-2.8-6.4-6.4-6.4h-58.8c-3.6 0-6.4 2.8-6.4 6.4v130.8h-21.6v-93.2c0-3.6-2.8-6.4-6.4-6.4H42.8c-3.6 0-6.4 2.8-6.4 6.4v93.2h-30c-3.6 0-6.4 2.8-6.4 6.4 0 3.6 2.8 6.4 6.4 6.4h411.2c3.6 0 6.4-2.8 6.4-6.4.4-3.6-2.4-6.4-6-6.4zm-322.8 0h-46v-86.8h46zm93.6 0h-46v-124.4h46zm93.2 0h-46v-114.8h46zm93.6 0h-46v-178.8h46z"/></g></g><g transform="translate(7.734 -9.862)" color="#000" fill-opacity=".992"><rect style="isolation:auto;mix-blend-mode:normal" width="37.042" height="20.033" x="8.264" y="266.168" ry="2.405" overflow="visible" opacity=".99" fill="#2fa4c3"/><rect ry="2.405" y="266.697" x="7.735" height="20.033" width="37.042" style="isolation:auto;mix-blend-mode:normal" overflow="visible" opacity=".99" fill="#4cd6ff"/><circle r="4.944" cy="276.713" cx="16.704" style="isolation:auto;mix-blend-mode:normal" overflow="visible" opacity=".99" fill="#fff"/><rect ry=".468" y="270.54" x="24.589" height=".935" width="17.773" style="isolation:auto;mix-blend-mode:normal" overflow="visible" opacity=".99" fill="#fff"/><rect ry=".468" y="273.413" x="24.656" height=".935" width="17.773" style="isolation:auto;mix-blend-mode:normal" overflow="visible" opacity=".99" fill="#fff"/><rect style="isolation:auto;mix-blend-mode:normal" width="13.564" height=".935" x="24.589" y="276.281" ry=".468" overflow="visible" opacity=".99" fill="#fff"/><rect style="isolation:auto;mix-blend-mode:normal" width="16.437" height=".935" x="24.722" y="281.164" ry=".468" overflow="visible" opacity=".99" fill="#fff"/></g><g transform="translate(.25 -1.57)" color="#000" fill-opacity=".992"><rect ry="2.405" y="266.168" x="8.264" height="20.033" width="37.042" style="isolation:auto;mix-blend-mode:normal" overflow="visible" opacity=".99" fill="#2f66c3"/><rect style="isolation:auto;mix-blend-mode:normal" width="37.042" height="20.033" x="7.735" y="266.697" ry="2.405" overflow="visible" opacity=".99" fill="#4c8bff"/><circle style="isolation:auto;mix-blend-mode:normal" cx="16.704" cy="276.713" r="4.944" overflow="visible" opacity=".99" fill="#fff"/><rect style="isolation:auto;mix-blend-mode:normal" width="17.773" height=".935" x="24.589" y="270.54" ry=".468" overflow="visible" opacity=".99" fill="#fff"/><rect style="isolation:auto;mix-blend-mode:normal" width="17.773" height=".935" x="24.656" y="273.413" ry=".468" overflow="visible" opacity=".99" fill="#fff"/><rect ry=".468" y="276.281" x="24.589" height=".935" width="13.564" style="isolation:auto;mix-blend-mode:normal" overflow="visible" opacity=".99" fill="#fff"/><rect ry=".468" y="281.164" x="24.722" height=".935" width="16.437" style="isolation:auto;mix-blend-mode:normal" overflow="visible" opacity=".99" fill="#fff"/></g><g transform="translate(-5.603 6.537)" color="#000" fill-opacity=".992"><rect style="isolation:auto;mix-blend-mode:normal" width="37.042" height="20.033" x="8.264" y="266.168" ry="2.405" overflow="visible" opacity=".99" fill="#c32f48"/><rect ry="2.405" y="266.697" x="7.735" height="20.033" width="37.042" style="isolation:auto;mix-blend-mode:normal" overflow="visible" opacity=".99" fill="#ff4c6b"/><circle r="4.944" cy="276.713" cx="16.704" style="isolation:auto;mix-blend-mode:normal" overflow="visible" opacity=".99" fill="#fff"/><rect ry=".468" y="270.54" x="24.589" height=".935" width="17.773" style="isolation:auto;mix-blend-mode:normal" overflow="visible" opacity=".99" fill="#fff"/><rect ry=".468" y="273.413" x="24.656" height=".935" width="17.773" style="isolation:auto;mix-blend-mode:normal" overflow="visible" opacity=".99" fill="#fff"/><rect style="isolation:auto;mix-blend-mode:normal" width="13.564" height=".935" x="24.589" y="276.281" ry=".468" overflow="visible" opacity=".99" fill="#fff"/><rect style="isolation:auto;mix-blend-mode:normal" width="16.437" height=".935" x="24.722" y="281.164" ry=".468" overflow="visible" opacity=".99" fill="#fff"/></g><g transform="translate(50.37 -111.115) scale(1.44274)" stroke-width=".693"><circle style="isolation:auto;mix-blend-mode:normal" cx="36.21" cy="185.229" r="11.092" color="#000" overflow="visible" opacity=".99" fill="#ececec" fill-opacity=".992"/><circle r="11.092" cy="185.549" cx="35.68" style="isolation:auto;mix-blend-mode:normal" color="#000" overflow="visible" opacity=".99" fill="#1c5dad" fill-opacity=".992"/><g transform="matrix(.19196 0 0 .19196 29.916 179.79)" fill="#fff" fill-opacity=".996" stroke-width="8.152"><path d="M36.03 60h-12a1 1 0 0 1-1-1v-8a1 1 0 0 1 1-1h12a1 1 0 0 1 1 1v8a1 1 0 0 1-1 1zm-11-2h10v-6h-10z"/><path d="M24.03 58h-21c-1.654 0-3-1.346-3-3s1.346-3 3-3h21a1 1 0 0 1 1 1v4a1 1 0 0 1-1 1zm-21-4c-.551 0-1 .449-1 1 0 .551.449 1 1 1h20v-2zM57.03 58h-21a1 1 0 0 1-1-1v-4a1 1 0 0 1 1-1h21c1.654 0 3 1.346 3 3s-1.346 3-3 3zm-20-2h20a1.001 1.001 0 0 0 0-2h-20zM32.03 52h-4a1 1 0 0 1-1-1v-8a1 1 0 0 1 1-1h4a1 1 0 0 1 1 1v8a1 1 0 0 1-1 1zm-3-2h2v-6h-2z"/><path d="M56.328 44H3.732A3.707 3.707 0 0 1 .03 40.298V1a1 1 0 0 1 1-1h16c.198 0 .391.059.555.168L23.333 4H59.03a1 1 0 0 1 1 1v35.298A3.707 3.707 0 0 1 56.328 44zM2.03 2v38.298c0 .938.764 1.702 1.702 1.702h52.596c.938 0 1.702-.764 1.702-1.702V6h-35c-.197 0-.39-.059-.555-.168L16.727 2z"/><path d="M20.024 34h-3.989a.997.997 0 0 1-.707-.293l-.414-.414a1 1 0 0 1-.293-.707V31.54a11.034 11.034 0 0 1-1.634-.678l-.741.74a1 1 0 0 1-.707.292h-.585a.997.997 0 0 1-.707-.293l-2.821-2.82a1 1 0 0 1-.293-.707v-.585c0-.265.105-.52.293-.708l.74-.739a10.977 10.977 0 0 1-.679-1.634H6.442a1 1 0 0 1-.708-.293l-.414-.414a1 1 0 0 1-.293-.707v-3.988c0-.265.105-.52.293-.707l.414-.414a1 1 0 0 1 .708-.293h1.065c.187-.511.417-.974.687-1.439l-.857-1.032a.999.999 0 0 1-.229-.685l.026-.557c.012-.249.116-.484.292-.661l2.821-2.821a1 1 0 0 1 .707-.293h.585c.265 0 .52.105.707.293l.74.74c.526-.27 1.073-.497 1.634-.678V9.414c0-.265.105-.52.293-.707l.414-.414A1 1 0 0 1 16.034 8h3.989c.265 0 .519.105.707.292l.414.414a1 1 0 0 1 .293.708v1.046c.562.182 1.107.408 1.634.678l.74-.74a1 1 0 0 1 .707-.293h.585c.265 0 .52.105.707.293l2.821 2.821a1 1 0 0 1 .293.707v.585c0 .265-.105.52-.293.707l-.739.74c.27.527.497 1.073.678 1.634h1.045c.265 0 .52.105.707.293l.414.414a.998.998 0 0 1 .292.707v3.988a1 1 0 0 1-.292.707l-.414.414a1 1 0 0 1-.707.293h-1.112a29.31 29.31 0 0 1-.661 1.585l.789.789a1 1 0 0 1 .293.707v.585c0 .265-.105.52-.293.707l-2.821 2.82a1 1 0 0 1-.707.293h-.585a1 1 0 0 1-.707-.292l-.74-.74a11.08 11.08 0 0 1-1.634.678v1.046c0 .265-.105.52-.293.708l-.414.414a.997.997 0 0 1-.706.292zm-3.402-2h2.816v-1.214a1 1 0 0 1 .762-.971 9.028 9.028 0 0 0 2.527-1.048 1.003 1.003 0 0 1 1.225.148l.86.859 1.992-1.991-.873-.873a1.001 1.001 0 0 1-.184-1.161c.305-.597.872-1.936 1.1-2.646a1 1 0 0 1 .952-.694h1.23v-2.816h-1.213a.999.999 0 0 1-.971-.762 9 9 0 0 0-1.049-2.527 1 1 0 0 1 .148-1.226l.859-.859-1.992-1.992-.86.859a.999.999 0 0 1-1.225.148 8.993 8.993 0 0 0-2.527-1.048 1 1 0 0 1-.762-.971V10h-2.816v1.214a1 1 0 0 1-.762.971 9.028 9.028 0 0 0-2.527 1.048 1.001 1.001 0 0 1-1.226-.148l-.859-.859-2.029 2.029.973 1.171c.278.335.307.811.073 1.178-.504.788-.838 1.407-1.051 2.236a1 1 0 0 1-.969.751H7.03v2.816h1.213a1 1 0 0 1 .971.762 9.013 9.013 0 0 0 1.049 2.527 1 1 0 0 1-.148 1.226l-.86.859 1.992 1.991.86-.859a1 1 0 0 1 1.225-.148 8.969 8.969 0 0 0 2.527 1.048 1 1 0 0 1 .762.971z"/><path d="M18.03 27.001a5.962 5.962 0 0 1-4.244-1.758A5.958 5.958 0 0 1 12.028 21c0-1.603.625-3.11 1.758-4.243a5.96 5.96 0 0 1 4.244-1.758c1.603 0 3.11.624 4.243 1.758A5.958 5.958 0 0 1 24.031 21a5.96 5.96 0 0 1-1.758 4.243 5.958 5.958 0 0 1-4.243 1.758zm0-10.001a3.976 3.976 0 0 0-2.83 1.172 3.973 3.973 0 0 0-1.172 2.829A3.98 3.98 0 0 0 15.2 23.83c1.512 1.512 4.147 1.512 5.658 0a3.973 3.973 0 0 0 1.172-2.829 3.973 3.973 0 0 0-1.172-2.829A3.971 3.971 0 0 0 18.03 17zM46.526 40h-2.992a.997.997 0 0 1-.707-.293l-.311-.311a.998.998 0 0 1-.292-.707v-.604a8.596 8.596 0 0 1-.926-.384l-.428.428a1.002 1.002 0 0 1-.707.292h-.438a.997.997 0 0 1-.707-.293l-2.116-2.115a1 1 0 0 1-.293-.707v-.439c0-.265.105-.52.293-.707l.428-.428a8.486 8.486 0 0 1-.385-.926h-.604a1 1 0 0 1-.708-.293l-.31-.311a1 1 0 0 1-.293-.707v-2.991c0-.265.105-.52.293-.707l.31-.311a1 1 0 0 1 .708-.293h.626c.111-.28.24-.542.385-.803l-.532-.641a.999.999 0 0 1-.229-.685l.02-.418a.999.999 0 0 1 .292-.661l2.116-2.116a1 1 0 0 1 .707-.293h.438c.265 0 .52.105.707.293l.428.428c.301-.146.61-.275.926-.384v-.604a1 1 0 0 1 .292-.707l.311-.311a1 1 0 0 1 .707-.293h2.992c.265 0 .52.105.707.293l.311.311a.998.998 0 0 1 .292.707v.604c.316.11.625.238.926.384l.428-.428a1 1 0 0 1 .707-.293h.439c.265 0 .52.105.707.293l2.116 2.116a1 1 0 0 1 .293.707v.439c0 .265-.105.52-.293.707l-.428.428c.146.301.275.61.385.926h.604c.265 0 .52.105.707.293l.311.311a.998.998 0 0 1 .292.707v2.991a1 1 0 0 1-.292.707l-.311.311a1 1 0 0 1-.707.293h-.663c-.115.293-.244.603-.368.884l.47.47a1 1 0 0 1 .293.707v.439c0 .265-.105.52-.293.707l-2.116 2.115a1 1 0 0 1-.707.293h-.439a.997.997 0 0 1-.707-.293l-.428-.428c-.301.146-.61.275-.926.385v.604a1 1 0 0 1-.292.707l-.311.311a1 1 0 0 1-.708.294zm-2.302-2h1.612v-.661a1 1 0 0 1 .762-.971 6.521 6.521 0 0 0 1.825-.757.999.999 0 0 1 1.226.148l.468.468 1.141-1.14-.478-.478a.998.998 0 0 1-.184-1.161c.247-.484.655-1.466.81-1.947a1 1 0 0 1 .952-.694h.673v-1.612h-.66a1 1 0 0 1-.971-.762 6.492 6.492 0 0 0-.757-1.825 1 1 0 0 1 .148-1.226l.468-.468-1.14-1.14-.468.468a.999.999 0 0 1-1.226.148 6.492 6.492 0 0 0-1.825-.757 1 1 0 0 1-.762-.971V22h-1.612v.661a1 1 0 0 1-.762.971 6.497 6.497 0 0 0-1.825.757 1.001 1.001 0 0 1-1.226-.148l-.468-.468-1.184 1.184.584.704c.278.335.307.812.073 1.178-.365.569-.605 1.014-.756 1.604a1 1 0 0 1-.969.751h-.663v1.612h.66a1 1 0 0 1 .971.761c.157.642.413 1.256.758 1.826.239.394.177.9-.148 1.226l-.468.468 1.14 1.14.468-.468a1 1 0 0 1 1.225-.148c.569.345 1.184.6 1.825.757a1 1 0 0 1 .762.971V38z"/><path d="M45.03 34a3.974 3.974 0 0 1-2.828-1.171 3.975 3.975 0 0 1-1.172-2.828c0-1.068.416-2.072 1.171-2.828 1.511-1.511 4.146-1.511 5.657 0a3.974 3.974 0 0 1 1.171 2.828 3.976 3.976 0 0 1-1.171 2.828A3.973 3.973 0 0 1 45.03 34zm0-5.999c-.534 0-1.037.208-1.414.585-.378.378-.586.88-.586 1.414 0 .534.208 1.036.586 1.414.756.755 2.073.755 2.829 0A1.99 1.99 0 0 0 47.03 30a1.994 1.994 0 0 0-2-1.999z"/></g></g><g transform="matrix(1.96892 0 0 1.96892 118.724 -93.75)" stroke-width=".508"><circle style="isolation:auto;mix-blend-mode:normal" cx="36.21" cy="185.211" r="11.092" color="#000" overflow="visible" opacity=".99" fill="#ccc" fill-opacity=".992"/><circle r="11.092" cy="185.549" cx="35.68" style="isolation:auto;mix-blend-mode:normal" color="#000" overflow="visible" opacity=".99" fill="#1c5dad" fill-opacity=".992"/><g transform="matrix(.03235 0 0 .03235 28.687 178.555)" fill="#fff" stroke-width="4.154"><path d="M216.529 93.2c-61.2 0-111.2 50-111.2 111.2 0 32 14 62.8 37.6 83.6 17.6 17.6 16 55.2 15.6 55.6 0 2 .4 3.6 2 5.2 1.2 1.2 3.2 2 4.8 2h102c2 0 3.6-.8 4.8-2 1.2-1.2 2-3.2 2-5.2 0-.4-2-38 15.6-55.6l1.2-1.2c23.2-21.2 36.8-51.2 36.8-82.4 0-61.2-50-111.2-111.2-111.2zm64 184.4c-.4.4-1.2 1.2-1.2 1.6-15.6 16.8-18.4 44.4-18.8 57.6h-88.4c-.4-13.2-3.2-42-20-59.2-21.2-18.4-33.6-45.2-33.6-73.6 0-54 43.6-97.6 97.6-97.6 54 0 97.6 43.6 97.6 97.6 0 28.4-12 55.2-33.2 73.6z"/><path d="M216.129 121.6c-3.6 0-6.8 3.2-6.8 6.8 0 3.6 3.2 6.8 6.8 6.8 40.4 0 72.8 32.8 72.8 72.8 0 3.6 3.2 6.8 6.8 6.8 3.6 0 6.8-3.2 6.8-6.8.4-47.6-38.4-86.4-86.4-86.4zM260.529 358.4h-88.8c-9.2 0-16.8 7.6-16.8 16.8 0 9.2 7.6 16.8 16.8 16.8h88.4c9.6-.4 17.2-7.6 17.2-16.8 0-9.2-7.6-16.8-16.8-16.8zm0 19.6h-88.8c-1.6 0-3.2-1.2-3.2-3.2s1.2-3.2 3.2-3.2h88.4c1.6 0 3.2 1.2 3.2 3.2s-1.2 3.2-2.8 3.2zM247.329 398.8h-62.4c-9.2 0-16.8 7.6-16.8 16.8 0 9.2 7.6 16.8 16.8 16.8h62.4c9.2 0 16.8-7.6 16.8-16.8 0-9.6-7.6-16.8-16.8-16.8zm0 19.6h-62.4c-1.6 0-3.2-1.2-3.2-3.2s1.2-3.2 3.2-3.2h62.4c1.6 0 3.2 1.2 3.2 3.2s-1.6 3.2-3.2 3.2zM216.129 60c4 0 6.8-3.2 6.8-6.8V6.8c0-3.6-3.2-6.8-6.8-6.8-3.6 0-6.8 3.2-6.8 6.8v46.4c0 3.6 3.2 6.8 6.8 6.8zM329.329 34.4c-3.2-2.4-7.2-1.2-9.2 1.6l-25.6 38.4c-2.4 3.2-1.6 7.6 1.6 9.6 1.2.8 2.4 1.2 3.6 1.2 2.4 0 4.4-1.2 5.6-3.2l25.6-38.4c2.4-2.8 1.6-7.2-1.6-9.2zM134.929 83.6c1.2 0 2.4-.4 3.6-1.2 3.2-2 4-6.4 2-9.6l-24.8-38.8c-2-3.2-6.4-4-9.6-2-3.2 2-4 6.4-2 9.6l24.8 38.8c1.6 2.4 3.6 3.2 6 3.2zM86.529 126l-40.4-22c-3.2-1.6-7.6-.4-9.2 2.8-2 3.2-.8 7.6 2.8 9.2l40.4 22c1.2.4 2 .8 3.2.8 2.4 0 4.8-1.2 6-3.6 1.6-3.2.4-7.6-2.8-9.2zM395.729 106.8c-1.6-3.2-6-4.4-9.2-2.8l-40.8 22c-3.2 1.6-4.4 6-2.8 9.2 1.2 2.4 3.6 3.6 6 3.6 1.2 0 2.4-.4 3.2-.8l40.8-22c3.2-1.6 4.4-6 2.8-9.2z"/></g></g></g></svg>